<?xml version="1.0" standalone="no"?>
<!DOCTYPE svg PUBLIC "-//W3C//DTD SVG 20010904//EN"
 "http://www.w3.org/TR/2001/REC-SVG-20010904/DTD/svg10.dtd">
<svg version="1.0" xmlns="http://www.w3.org/2000/svg"
 width="654.000000pt" height="654.000000pt" viewBox="0 0 654.000000 654.000000"
 preserveAspectRatio="xMidYMid meet">
<metadata>
Created by potrace 1.14, written by Peter Selinger 2001-2017
</metadata>
<g transform="translate(0.000000,654.000000) scale(0.100000,-0.100000)"
fill="#000000" stroke="none">
<path d="M17 4811 c-15 -16 -21 -140 -10 -188 6 -29 26 -34 136 -38 183 -6
300 -81 354 -229 23 -64 25 -216 3 -321 -10 -49 -21 -108 -24 -130 -4 -23 -9
-52 -11 -65 -3 -14 -12 -65 -20 -115 -9 -49 -22 -124 -30 -165 -16 -84 -21
-108 -35 -195 -5 -33 -12 -71 -15 -85 -3 -14 -12 -65 -21 -115 -30 -175 -60
-344 -84 -470 -92 -487 -97 -555 -56 -679 14 -42 37 -94 51 -117 103 -162 310
-228 506 -160 132 45 227 137 313 302 30 58 49 84 61 84 12 0 34 -27 64 -76
99 -162 187 -256 287 -305 55 -27 59 -27 227 -25 210 2 204 -2 202 124 -2 107
-9 117 -83 117 -44 0 -67 7 -117 35 -161 90 -282 261 -316 448 -6 34 -13 72
-15 85 -3 13 -14 26 -25 30 -31 12 -337 8 -349 -4 -11 -11 -13 -21 -25 -99
-16 -114 -77 -204 -128 -191 -34 8 -61 79 -55 139 8 68 84 168 203 267 17 14
77 66 135 116 58 50 116 98 130 107 30 19 13 32 267 -209 81 -78 164 -156 183
-174 19 -18 100 -94 180 -170 80 -76 161 -152 180 -170 31 -29 163 -153 400
-378 l75 -71 627 -1 c556 0 628 2 642 16 12 12 16 37 16 109 0 111 -9 125 -76
125 -52 0 -118 30 -152 69 -54 63 -52 39 -50 713 3 575 4 623 20 626 9 2 28
-9 41 -25 19 -21 847 -1040 912 -1121 33 -41 66 -72 79 -72 24 0 46 26 297
339 672 838 736 916 755 916 19 0 19 -15 19 -655 0 -620 -1 -657 -19 -690 -40
-75 -72 -93 -181 -105 -29 -2 -55 -11 -62 -20 -17 -24 -14 -193 4 -211 15 -15
42 -15 782 -16 270 -1 306 1 316 16 18 23 17 193 0 210 -8 7 -40 17 -72 21
-84 10 -135 42 -169 106 -18 33 -19 80 -20 1209 0 649 3 1189 8 1207 12 43 66
83 120 90 65 9 68 13 68 123 0 76 -3 100 -16 110 -12 11 -107 13 -442 13 -235
-1 -435 -2 -444 -2 -37 -2 -45 -25 -44 -138 l1 -108 32 3 c53 5 103 -25 125
-76 35 -79 29 -92 -137 -302 -28 -36 -168 -213 -310 -395 -281 -358 -407 -519
-433 -550 -10 -12 -39 -50 -67 -85 -72 -93 -78 -100 -97 -111 -17 -9 -43 21
-284 326 -13 17 -79 100 -146 186 -161 205 -449 570 -465 589 -7 8 -119 150
-248 315 -130 165 -245 309 -256 320 -18 19 -34 20 -331 20 l-311 0 -32 -25
c-17 -14 -38 -32 -47 -40 -8 -8 -38 -34 -65 -57 -28 -24 -64 -55 -80 -70 -17
-16 -61 -55 -99 -88 -38 -33 -76 -66 -84 -75 -8 -8 -33 -30 -55 -49 -22 -19
-71 -62 -110 -96 -202 -179 -277 -246 -344 -305 -41 -36 -79 -70 -85 -75 -6
-6 -65 -58 -131 -115 -66 -58 -129 -114 -141 -125 -11 -11 -34 -31 -50 -45
-16 -14 -83 -72 -149 -130 -66 -58 -127 -106 -135 -105 -23 0 -18 56 24 265
20 102 38 196 41 210 3 14 25 128 50 254 75 380 95 424 192 433 27 3 55 11 63
19 19 19 23 180 4 211 l-13 21 -655 0 c-591 -1 -657 -2 -669 -17z m2917 -613
c63 -73 60 -29 62 -1110 1 -718 -2 -986 -10 -981 -22 13 -1226 1218 -1224
1224 2 3 111 102 243 220 265 235 296 263 334 298 14 12 57 51 96 85 65 57
240 215 293 263 13 12 41 30 63 41 52 26 98 13 143 -40z"/>
</g>
</svg>
